<svg xmlns="http://www.w3.org/2000/svg" style="display: none;">
  <symbol id="documentation-icon" viewBox="0 0 24 24" fill="currentColor">
    <path d="M2 3h20v18H2V3zm2 2v14h16V5H4zm2 2h2v2H6V7zm0 4h2v2H6v-2zm0 4h2v2H6v-2zm4-8h8v2h-8V7zm0 4h8v2h-8v-2zm0 4h8v2h-8v-2z"/>
  </symbol>
  <symbol id="social-icon" viewBox="0 0 24 24" fill="currentColor">
    <path d="M12 2C6.48 2 2 6.48 2 12s4.48 10 10 10 10-4.48 10-10S17.52 2 12 2zm-1 17.93c-3.94-.49-7-3.85-7-7.93s3.05-7.44 7-7.93v15.86zm2-15.86c1.03.13 2 .45 2.87.93H13v-5.5h5.5c.48.87.8 1.84.93 2.87v-2.3H13V4.07z"/>
  </symbol>
  <symbol id="github-icon" viewBox="0 0 24 24" fill="currentColor">
    <path d="M12 2C6.477 2 2 6.477 2 12c0 4.42 2.865 8.17 6.839 9.49.5.092.682-.217.682-.482 0-.237-.008-.866-.013-1.7-2.782.604-3.369-1.34-3.369-1.34-.454-1.156-1.11-1.464-1.11-1.464-.908-.62.069-.608.069-.608 1.003.07 1.531 1.03 1.531 1.03.892 1.529 2.341 1.087 2.91.831.092-.646.35-1.086.636-1.336-2.22-.253-4.555-1.11-4.555-4.943 0-1.091.39-1.984 1.029-2.683-.103-.253-.446-1.27.098-2.647 0 0 .84-.269 2.75 1.025A9.578 9.578 0 0112 6.836c.85.004 1.705.115 2.504.337 1.909-1.294 2.747-1.025 2.747-1.025.546 1.377.203 2.394.1 2.647.64.699 1.028 1.592 1.028 2.683 0 3.842-2.339 4.687-4.566 4.935.359.309.678.919.678 1.852 0 1.336-.012 2.415-.012 2.743 0 .267.18.578.688.48C19.138 20.167 22 16.418 22 12c0-5.523-4.477-10-10-10z"/>
  </symbol>
  <symbol id="discord-icon" viewBox="0 0 24 24" fill="currentColor">
    <path d="M20.317 4.37a19.791 19.791 0 00-4.885-1.515.074.074 0 00-.079.037c-.21.375-.444.864-.608 1.25a18.27 18.27 0 00-5.487 0 12.64 12.64 0 00-.617-1.25.077.077 0 00-.079-.037A19.736 19.736 0 003.677 4.37a.07.07 0 00-.032.027C.533 9.046-.32 13.58.099 18.057a.082.082 0 00.031.057 19.9 19.9 0 005.993 3.03.078.078 0 00.084-.028c.462-.63.874-1.295 1.226-1.994a.076.076 0 00-.041-.106 13.107 13.107 0 01-1.872-.892.077.077 0 01-.008-.128 10.2 10.2 0 00.372-.292.074.074 0 01.077-.01c3.928 1.793 8.18 1.793 12.062 0a.074.074 0 01.078.01c.12.098.246.198.373.292a.077.077 0 01-.006.127 12.299 12.299 0 01-1.873.892.077.077 0 00-.041.107c.36.698.772 1.362 1.225 1.993a.076.076 0 00.084.028 19.839 19.839 0 006.002-3.03.077.077 0 00.032-.054c.5-5.177-.838-9.674-3.549-13.66a.061.061 0 00-.031-.03zM8.02 15.33c-1.183 0-2.157-1.085-2.157-2.419 0-1.333.956-2.419 2.157-2.419 1.21 0 2.176 1.096 2.157 2.42 0 1.333-.956 2.418-2.157 2.418zm7.975 0c-1.183 0-2.157-1.085-2.157-2.419 0-1.333.955-2.419 2.157-2.419 1.21 0 2.176 1.096 2.157 2.42 0 1.333-.946 2.418-2.157 2.418z"/>
  </symbol>
  <symbol id="x-icon" viewBox="0 0 24 24" fill="currentColor">
    <path d="M18.244 2.25h3.308l-7.227 8.26 8.502 11.24H16.17l-5.214-6.817L4.99 21.75H1.68l7.73-8.835L1.254 2.25H8.08l4.713 6.231zm-1.161 17.52h1.833L7.084 4.126H5.117z"/>
  </symbol>
  <symbol id="bluesky-icon" viewBox="0 0 24 24" fill="currentColor">
    <path d="M12.186 2.584c2.32 0 4.455.546 5.932 1.34 1.74.932 2.843 2.428 2.843 4.418 0 1.356-.478 2.514-1.43 3.476-.95.96-2.143 1.58-3.578 1.855.547.133 1.044.324 1.493.57.448.247.83.545 1.148.893.317.35.558.745.723 1.188.165.443.248.93.248 1.458 0 .943-.33 1.772-.99 2.488-.66.717-1.553 1.075-2.678 1.075-1.127 0-2.042-.36-2.745-1.082-.703-.72-1.055-1.596-1.055-2.627 0-.654.17-1.236.513-1.746.34-.51.803-.863 1.388-1.06-.43-.263-.787-.56-1.07-.89-.283-.33-.485-.687-.608-1.07-.123-.384-.184-.795-.184-1.235 0-.656.2-1.226.6-1.71.4-.485.93-.765 1.59-.842-.43-.347-.775-.73-1.036-1.148-.26-.418-.39-.88-.39-1.388 0-.66.197-1.226.59-1.7.394-.473.923-.772 1.588-.896-.43-.374-.765-.793-1.006-1.257-.24-.464-.36-.98-.36-1.548 0-.723.2-1.336.6-1.838.4-.503.933-.78 1.6-.833.25-.02.498-.01.745.028.247.038.487.105.72.2.233.095.447.22.64.373.194.154.36.34.5.558.14.218.23.463.27.734.04.272.05.56.03.863-.08 1.214-.45 2.233-1.11 3.058-.66.824-1.53 1.29-2.61 1.397-.54.054-1.07.03-1.59-.07-.52-.1-1.01-.273-1.47-.52-.46-.247-.88-.558-1.26-.934-.38-.376-.688-.812-.924-1.307-.236-.495-.354-1.05-.354-1.666 0-.616.17-1.158.51-1.628.34-.47.793-.783 1.36-.94-.313-.372-.56-.8-.743-1.285-.183-.485-.275-1.01-.275-1.576 0-.617.17-1.147.51-1.588.34-.442.787-.73 1.34-.866-.28-.378-.5-.807-.66-1.287-.16-.48-.24-1.006-.24-1.578 0-.66.192-1.21.577-1.648.385-.44.894-.683 1.528-.73-.47-.37-.833-.814-1.088-1.334-.254-.52-.38-1.1-.38-1.74 0-.787.24-1.453.72-1.998.48-.544 1.1-.872 1.86-.982-.49-.404-.866-.883-1.128-1.438-.262-.554-.393-1.17-.393-1.848 0-.873.248-1.61.745-2.21.496-.6 1.143-.95 1.94-1.05-.553-.417-.973-.934-1.26-1.55-.286-.617-.43-1.31-.43-2.08 0-.933.28-1.73.838-2.39.56-.66 1.297-1.03 2.214-1.11-.62-.383-1.1-.853-1.44-1.41-.34-.558-.51-1.19-.51-1.9 0-.84.262-1.548.786-2.124.524-.577 1.21-.92 2.058-1.03-.695-.36-1.237-.82-1.628-1.38-.39-.56-.586-1.21-.586-1.95 0-.867.27-1.596.808-2.186.54-.59 1.247-.93 2.123-1.02-.767-.385-1.35-.88-1.75-1.487-.4-.607-.6-1.31-.6-2.11 0-.94.29-1.74.87-2.398.58-.66 1.35-1.04 2.29-1.15-.838-.372-1.48-.852-1.93-1.44-.45-.588-.674-1.27-.674-2.05 0-.94.286-1.732.86-2.377.573-.644 1.33-1.02 2.268-1.125C11.344.107 11.7.09 12.186.09c.487 0 .97.023 1.448.07.478.047.94.124 1.387.23.447.107.873.25 1.278.43.405.18.79.403 1.153.67.363.267.695.577.996.93.301.353.56.75.777 1.19.217.44.38.934.49 1.482.11.548.165 1.144.165 1.788 0 1.04-.16 1.95-.48 2.73-.32.78-.75 1.45-1.29 2.01-.54.56-1.17.98-1.89 1.26.64.157 1.2.404 1.68.74.48.336.88.745 1.2 1.227.32.482.56 1.04.72 1.674.16.634.24 1.32.24 2.058 0 1.01-.166 1.908-.498 2.694-.332.786-.78 1.45-1.344 1.99-.564.54-1.2.94-1.908 1.2.41.157.776.368 1.098.632.32.265.58.582.78.95.2.37.34.79.42 1.26.08.47.12.99.12 1.56 0 1.06-.19 1.98-.57 2.76-.38.78-.89 1.43-1.53 1.95-.64.52-1.38.89-2.22 1.11.59.195 1.11.473 1.56.834.45.36.82.79 1.11 1.29.29.5.5 1.07.63 1.71.13.64.196 1.35.196 2.13 0 1.17-.193 2.18-.58 3.03-.386.85-.91 1.55-1.57 2.1-.66.55-1.43.91-2.31 1.08.63.184 1.17.45 1.62.8.45.35.82.77 1.11 1.26.29.49.5 1.04.63 1.65.13.61.196 1.28.196 2.01 0 1.17-.197 2.17-.59 3-.393.83-.93 1.51-1.61 2.04-.68.53-1.48.87-2.4 1.02.7.173 1.3.452 1.8.837.5.385.91.853 1.23 1.404.32.55.55 1.17.69 1.86.14.69.21 1.43.21 2.22 0 1.24-.22 2.31-.66 3.21-.44.9-1.05 1.65-1.83 2.25-.78.6-1.7.99-2.76 1.17.78.186 1.44.494 1.98.924.54.43.97.94 1.29 1.53.32.59.54 1.25.66 1.98.12.73.18 1.49.18 2.28 0 1.28-.24 2.36-.72 3.24-.48.88-1.13 1.61-1.95 2.19-.82.58-1.78.95-2.88 1.11.87.2 1.6.536 2.19 1.01.59.473 1.04 1.04 1.35 1.7.31.66.51 1.39.6 2.19.09.8.135 1.63.135 2.49 0 1.87-.34 3.44-1.02 4.71-.68 1.27-1.6 2.32-2.76 3.15-1.16.83-2.5 1.39-4.02 1.68-1.52.29-3.1.325-4.74.105-1.64-.22-3.16-.654-4.56-1.302-1.4-.65-2.61-1.47-3.63-2.46-1.02-.99-1.82-2.17-2.4-3.54-.58-1.37-.87-2.87-.87-4.5 0-1.37.19-2.65.57-3.84.38-1.19.9-2.23 1.56-3.12.66-.89 1.44-1.57 2.34-2.04-.46-.19-.88-.43-1.26-.72-.38-.29-.7-.63-.96-.97-.26-.35-.46-.72-.6-1.1-.14-.38-.21-.78-.21-1.2 0-.5.13-.94.39-1.32.26-.38.6-.69 1.02-.93-.32-.14-.62-.31-.9-.51-.28-.2-.52-.44-.72-.68-.2-.24-.37-.5-.51-.78-.14-.28-.22-.57-.24-.87-.03-.3-.03-.6 0-.9.03-.3.1-.58.21-.84.11-.27.26-.52.45-.75.19-.23.42-.43.69-.6-.25-.17-.47-.37-.66-.6-.19-.23-.35-.48-.48-.75-.13-.27-.2-.56-.22-.87-.02-.31-.01-.62.03-.93.04-.31.13-.6.27-.87.14-.27.33-.52.57-.75.24-.23.52-.42.84-.57-.32-.16-.59-.37-.81-.63-.22-.26-.39-.55-.51-.87-.12-.32-.18-.66-.18-1.02 0-.46.1-.87.3-1.23.2-.36.47-.67.81-.93-.34-.19-.62-.43-.84-.72-.22-.29-.38-.61-.48-.96-.1-.35-.15-.72-.15-1.11 0-.52.12-.98.36-1.38.24-.4.56-.73.96-.99-.38-.2-.69-.46-.93-.78-.24-.32-.42-.67-.54-1.05-.12-.38-.18-.79-.18-1.23 0-.58.15-1.09.45-1.53.3-.44.7-.79 1.2-1.05-.42-.22-.76-.5-1.02-.84-.26-.34-.45-.72-.57-1.14-.12-.42-.18-.87-.18-1.35 0-.64.17-1.2.51-1.68.34-.48.78-.85 1.32-1.11-.46-.25-.83-.56-1.11-.93-.28-.37-.48-.78-.6-1.23-.12-.45-.18-.93-.18-1.44 0-.7.19-1.32.57-1.86.38-.54.88-.95 1.5-1.23-.5-.28-.9-.62-1.2-1.02-.3-.4-.52-.86-.66-1.38-.14-.52-.21-1.08-.21-1.68 0-.8.23-1.5.69-2.1.46-.6 1.07-1.07 1.83-1.41-.55-.31-.99-.69-1.32-1.14-.33-.45-.57-.96-.72-1.53-.15-.57-.23-1.18-.23-1.83 0-.94.27-1.76.81-2.46.54-.7 1.26-1.24 2.16-1.62-.6-.35-1.07-.78-1.41-1.29-.34-.51-.58-1.08-.72-1.71-.14-.63-.21-1.3-.21-2.01 0-1.09.31-2.03.93-2.82.62-.79 1.45-1.39 2.49-1.8-.65-.38-1.16-.85-1.53-1.41-.37-.56-.63-1.19-.78-1.89-.15-.7-.23-1.43-.23-2.19 0-1.28.36-2.38 1.08-3.3.72-.92 1.67-1.61 2.85-2.07-.7-.41-1.25-.92-1.65-1.53-.4-.61-.68-1.3-.84-2.07-.16-.77-.24-1.57-.24-2.4 0-1.4.4-2.6 1.2-3.6.8-1 1.86-1.75 3.18-2.25-.75-.44-1.34-1-1.77-1.68-.43-.68-.65-1.46-.65-2.34 0-.93.27-1.73.81-2.4.54-.67 1.27-1.17 2.19-1.5-.8-.47-1.43-1.07-1.89-1.8-.46-.73-.69-1.55-.69-2.46 0-.97.28-1.81.84-2.52.56-.71 1.32-1.25 2.28-1.62-.86-.5-1.53-1.14-2.01-1.92-.48-.78-.72-1.65-.72-2.61 0-.88.21-1.65.63-2.31.42-.66.99-1.17 1.71-1.53-.93-.56-1.65-1.27-2.16-2.13-.51-.86-.77-1.82-.77-2.88 0-1.12.32-2.09.96-2.91.64-.82 1.5-1.45 2.58-1.89-1-.6-1.77-1.37-2.31-2.31-.54-.94-.81-2-.81-3.18 0-1.19.33-2.22.99-3.09.66-.87 1.55-1.53 2.67-1.98-1.08-.66-1.91-1.5-2.49-2.52-.58-1.02-.87-2.17-.87-3.45 0-1.28.36-2.4 1.08-3.36.72-.96 1.68-1.68 2.88-2.16-1.17-.72-2.07-1.63-2.7-2.73-.63-1.1-.95-2.34-.95-3.72 0-1.38.4-2.58 1.2-3.6.8-1.02 1.86-1.79 3.18-2.31-1.26-.77-2.23-1.74-2.91-2.91-.68-1.17-1.02-2.48-1.02-3.93 0-1.45.4-2.71 1.2-3.78.8-1.07 1.87-1.88 3.21-2.43-1.36-.83-2.4-1.88-3.12-3.15-.72-1.27-1.08-2.7-1.08-4.29 0-1.59.46-2.97 1.38-4.14.92-1.17 2.15-2.05 3.69-2.64-1.46-.89-2.57-2.01-3.33-3.36-.76-1.35-1.14-2.87-1.14-4.56 0-1.69.49-3.16 1.47-4.41.98-1.25 2.29-2.19 3.93-2.82-1.56-.95-2.74-2.15-3.54-3.6-.8-1.45-1.2-3.08-1.2-4.89 0-1.81.52-3.39 1.56-4.74 1.04-1.35 2.43-2.37 4.17-3.06C5.33.36 6.72.04 8.2.04c1.48 0 2.87.32 4.17.96 1.3.64 2.41 1.52 3.33 2.64 1.28 1.56 2.18 3.41 2.7 5.55.08.36.14.72.18 1.08.04.36.06.72.06 1.08 0 .36-.02.72-.06 1.08-.04.36-.1.72-.18 1.08-.52 2.14-1.42 3.99-2.7 5.55-.92 1.12-2.03 2-3.33 2.64-1.3.64-2.69.96-4.17.96z"/>
  </symbol>
</svg>